<svg viewBox="0 0 14 12" fill="none" xmlns="http://www.w3.org/2000/svg">
<path d="M0.5 1.78718C0.5 1.25535 0.931133 0.824219 1.46296 0.824219H3.87037C4.4022 0.824219 4.83333 1.25535 4.83333 1.78718V4.19459C4.83333 4.72642 4.4022 5.15755 3.87037 5.15755H1.46296C0.931133 5.15755 0.5 4.72642 0.5 4.19459V1.78718Z" fill="currentColor"/>
<path d="M9.16667 1.78718C9.16667 1.25535 9.5978 0.824219 10.1296 0.824219H12.537C13.0689 0.824219 13.5 1.25535 13.5 1.78718V4.19459C13.5 4.72642 13.0689 5.15755 12.537 5.15755H10.1296C9.5978 5.15755 9.16667 4.72642 9.16667 4.19459V1.78718Z" fill="currentColor"/>
<path d="M5.55556 7.8057C5.55556 7.27387 5.98669 6.84274 6.51852 6.84274H8.92593C9.45776 6.84274 9.88889 7.27387 9.88889 7.8057V10.2131C9.88889 10.7449 9.45776 11.1761 8.92593 11.1761H6.51852C5.98669 11.1761 5.55556 10.7449 5.55556 10.2131V7.8057Z" fill="currentColor"/>
<path d="M11.3332 2.99121H2.6665L7.24058 9.00973" stroke="currentColor" stroke-width="0.962963"/>
</svg>
