<svg viewBox="0 0 14 14" fill="none" xmlns="http://www.w3.org/2000/svg">
<path d="M7 13.4937C10.5898 13.4937 13.5 10.5849 13.5 6.99684C13.5 3.40873 10.5898 0.5 7 0.5M7 13.4937C3.41015 13.4937 0.5 10.5849 0.5 6.99684C0.5 3.40873 3.41015 0.5 7 0.5M7 13.4937C8.3834 13.4937 10.6751 10.5849 10.6751 6.99684C10.6751 3.40873 8.3834 0.5 7 0.5M7 13.4937C5.61659 13.4937 3.32472 10.5849 3.32472 6.99684C3.32472 3.40873 5.61659 0.5 7 0.5M0.5 6.99057L13.5 7.01592M6.99994 13.5L6.99994 0.506304M1.74288 3.35229H12.2443M1.74288 10.6541H12.2443" stroke="currentColor"/>
</svg>
