<svg viewBox="0 0 12 12" fill="none" xmlns="http://www.w3.org/2000/svg">
<path d="M0 1.11828C0 0.500671 0.500671 0 1.11828 0H3.91398C4.53159 0 5.03226 0.500671 5.03226 1.11828V3.91398C5.03226 4.53159 4.53159 5.03226 3.91398 5.03226H1.11828C0.500671 5.03226 0 4.53159 0 3.91398V1.11828Z" fill="currentColor"/>
<path d="M0 8.08605C0 7.46844 0.500671 6.96777 1.11828 6.96777H3.91398C4.53159 6.96777 5.03226 7.46844 5.03226 8.08605V10.8818C5.03226 11.4994 4.53159 12 3.91398 12H1.11828C0.500671 12 0 11.4994 0 10.8818V8.08605Z" fill="currentColor"/>
<path d="M6.96777 8.08605C6.96777 7.46844 7.46844 6.96777 8.08605 6.96777H10.8818C11.4994 6.96777 12 7.46844 12 8.08605V10.8818C12 11.4994 11.4994 12 10.8818 12H8.08605C7.46844 12 6.96777 11.4994 6.96777 10.8818V8.08605Z" fill="currentColor"/>
<path d="M8.08605 0.5H10.8818C11.2232 0.5 11.5 0.776813 11.5 1.11828V3.91398C11.5 4.25544 11.2232 4.53226 10.8818 4.53226H8.08605C7.74459 4.53226 7.46777 4.25544 7.46777 3.91398V1.11828C7.46777 0.776813 7.74459 0.5 8.08605 0.5Z" stroke="currentColor"/>
</svg>
