<svg viewBox="0 0 14 16" fill="none" xmlns="http://www.w3.org/2000/svg">
<g opacity="0.7">
<path fill-rule="evenodd" clip-rule="evenodd" d="M7.46188 1.12768C7.17607 0.957441 6.82393 0.957441 6.53812 1.12768L1.46188 4.15118C1.17607 4.32142 1 4.63602 1 4.9765V11.0235C1 11.364 1.17607 11.6786 1.46188 11.8488L6.53812 14.8723C6.82393 15.0426 7.17607 15.0426 7.46188 14.8723L12.5381 11.8488C12.8239 11.6786 13 11.364 13 11.0235V4.9765C13 4.63602 12.8239 4.32142 12.5381 4.15118L7.46188 1.12768ZM7.09251 10.3829C8.31694 10.3829 9.30954 9.35894 9.30954 8.09577C9.30954 6.8326 8.31694 5.80859 7.09251 5.80859C5.86808 5.80859 4.87549 6.8326 4.87549 8.09577C4.87549 9.35894 5.86808 10.3829 7.09251 10.3829Z" fill="currentColor"/>
<path d="M6.53812 1.12768L6.79398 1.55725L6.79398 1.55725L6.53812 1.12768ZM7.46188 1.12768L7.20602 1.55725L7.20602 1.55725L7.46188 1.12768ZM1.46188 4.15118L1.20602 3.72161L1.20602 3.72161L1.46188 4.15118ZM1.46188 11.8488L1.20602 12.2784L1.20602 12.2784L1.46188 11.8488ZM6.53812 14.8723L6.79398 14.4427L6.79398 14.4427L6.53812 14.8723ZM7.46188 14.8723L7.20602 14.4427L7.20602 14.4427L7.46188 14.8723ZM12.5381 11.8488L12.794 12.2784L12.794 12.2784L12.5381 11.8488ZM12.5381 4.15118L12.794 3.72161L12.794 3.72161L12.5381 4.15118ZM6.79398 1.55725C6.92214 1.48092 7.07786 1.48092 7.20602 1.55725L7.71774 0.698102C7.27428 0.433966 6.72572 0.433966 6.28226 0.698102L6.79398 1.55725ZM1.71774 4.58076L6.79398 1.55725L6.28226 0.698102L1.20602 3.72161L1.71774 4.58076ZM1.5 4.9765C1.5 4.80715 1.58763 4.65825 1.71774 4.58076L1.20602 3.72161C0.764503 3.98458 0.5 4.4649 0.5 4.9765H1.5ZM1.5 11.0235V4.9765H0.5V11.0235H1.5ZM1.71774 11.4192C1.58763 11.3417 1.5 11.1928 1.5 11.0235H0.5C0.5 11.5351 0.764503 12.0154 1.20602 12.2784L1.71774 11.4192ZM6.79398 14.4427L1.71774 11.4192L1.20602 12.2784L6.28226 15.3019L6.79398 14.4427ZM7.20602 14.4427C7.07786 14.5191 6.92214 14.5191 6.79398 14.4427L6.28226 15.3019C6.72572 15.566 7.27428 15.566 7.71774 15.3019L7.20602 14.4427ZM12.2823 11.4192L7.20602 14.4427L7.71774 15.3019L12.794 12.2784L12.2823 11.4192ZM12.5 11.0235C12.5 11.1928 12.4124 11.3417 12.2823 11.4192L12.794 12.2784C13.2355 12.0154 13.5 11.5351 13.5 11.0235H12.5ZM12.5 4.9765V11.0235H13.5V4.9765H12.5ZM12.2823 4.58076C12.4124 4.65825 12.5 4.80715 12.5 4.9765H13.5C13.5 4.4649 13.2355 3.98458 12.794 3.72161L12.2823 4.58076ZM7.20602 1.55725L12.2823 4.58076L12.794 3.72161L7.71774 0.698102L7.20602 1.55725ZM8.80954 8.09577C8.80954 9.0976 8.02623 9.88295 7.09251 9.88295V10.8829C8.60765 10.8829 9.80954 9.62029 9.80954 8.09577H8.80954ZM7.09251 6.30859C8.02623 6.30859 8.80954 7.09394 8.80954 8.09577H9.80954C9.80954 6.57125 8.60765 5.30859 7.09251 5.30859V6.30859ZM5.37549 8.09577C5.37549 7.09394 6.15879 6.30859 7.09251 6.30859V5.30859C5.57737 5.30859 4.37549 6.57125 4.37549 8.09577H5.37549ZM7.09251 9.88295C6.15879 9.88295 5.37549 9.0976 5.37549 8.09577H4.37549C4.37549 9.62029 5.57737 10.8829 7.09251 10.8829V9.88295Z" fill="currentColor"/>
</g>
</svg>
