<svg viewBox="0 0 14 14" fill="none" xmlns="http://www.w3.org/2000/svg">
<path d="M0.739014 13.5184V11.989C0.739014 10.0885 2.27968 8.5478 4.18019 8.5478H7.76843C9.66893 8.5478 11.2096 10.0885 11.2096 11.989V13.5184M12.9998 13.5184V12.094C12.9998 11.5155 12.9623 10.9319 12.7835 10.3818C12.15 8.43266 10.8538 7.60242 9.7605 7.16133M9.54703 1.19629C10.0572 1.28892 10.521 1.55167 10.8627 1.94169C11.2044 2.33171 11.4039 2.826 11.4287 3.34395C11.4535 3.8619 11.302 4.37297 10.9991 4.79381C10.6961 5.21465 10.2595 5.52044 9.7605 5.66133M8.49976 3.69629C8.49976 5.077 7.38047 6.19629 5.99976 6.19629C4.61904 6.19629 3.49976 5.077 3.49976 3.69629C3.49976 2.31558 4.61904 1.19629 5.99976 1.19629C7.38047 1.19629 8.49976 2.31558 8.49976 3.69629Z" stroke="#7C7C7C" stroke-width="1.3"/>
</svg>
