<svg viewBox="0 0 17 13" fill="none" xmlns="http://www.w3.org/2000/svg">
<g>
<path d="M5.41258 6.76315H0.739014L3.55926 1.43944C3.99244 0.621728 4.84204 0.110352 5.76741 0.110352H11.9532C12.8785 0.110352 13.7281 0.621728 14.1613 1.43944L16.9816 6.76315H12.308L10.2394 8.87257H7.48121L5.41258 6.76315Z" fill="black"/>
<path d="M6.99463 9.34974L7.19501 9.55408H7.48121H10.2394H10.5256L10.726 9.34974L12.5942 7.44466H16.3001V10.3329C16.3001 11.2485 15.6085 11.9231 14.8363 11.9231H2.88426C2.1121 11.9231 1.42052 11.2485 1.42052 10.3329V7.44466H5.12639L6.99463 9.34974ZM5.41258 6.08164H1.87127L4.16148 1.75847C4.47652 1.16377 5.09441 0.791858 5.76741 0.791858H11.9532C12.6262 0.791858 13.2441 1.16377 13.5591 1.75846L15.8493 6.08164H12.308H12.0218L11.8214 6.28598L9.95319 8.19107H7.7674L5.89916 6.28598L5.69878 6.08164H5.41258Z" stroke="black" stroke-width="1.36301"/>
</g>
</svg>
