<svg viewBox="0 0 14 14" fill="none" xmlns="http://www.w3.org/2000/svg">
<path d="M5.88014 2.60301H3.37533C2.37331 2.60301 1.87231 2.60301 1.48959 2.79801C1.15294 2.96955 0.879232 3.24325 0.707701 3.5799C0.512695 3.96262 0.512695 4.46363 0.512695 5.46564V10.4753C0.512695 11.4773 0.512695 11.9783 0.707701 12.361C0.879232 12.6976 1.15294 12.9714 1.48959 13.1429C1.87231 13.3379 2.37331 13.3379 3.37533 13.3379H8.38494C9.38696 13.3379 9.88797 13.3379 10.2707 13.1429C10.6073 12.9714 10.881 12.6976 11.0526 12.361C11.2476 11.9783 11.2476 11.4773 11.2476 10.4753V7.97045M4.09097 9.7596H5.08964C5.38138 9.7596 5.52725 9.7596 5.66452 9.72664C5.78623 9.69742 5.90258 9.64923 6.00929 9.58383C6.12966 9.51007 6.23281 9.40692 6.4391 9.20063L12.1422 3.49758C12.6362 3.00352 12.6362 2.20249 12.1422 1.70844C11.6481 1.21438 10.8471 1.21438 10.353 1.70843L4.64994 7.41149C4.44365 7.61778 4.3405 7.72092 4.26674 7.84129C4.20134 7.94801 4.15315 8.06436 4.12393 8.18606C4.09097 8.32334 4.09097 8.46921 4.09097 8.76095V9.7596Z" stroke="currentColor" stroke-linecap="round" stroke-linejoin="round"/>
</svg>
