<svg viewBox="0 0 12 13" fill="none" xmlns="http://www.w3.org/2000/svg">
<g>
<path d="M2.23877 1.78265C2.23877 1.41096 2.63929 1.15091 2.99644 1.25385C3.39252 1.368 3.91424 1.47363 4.48877 1.47363C6.289 1.47363 7.18854 0.473633 8.98877 0.473633C9.83799 0.473633 10.5718 0.704409 10.9551 0.852393C11.1318 0.920609 11.2388 1.09326 11.2388 1.28265V7.16462C11.2388 7.53631 10.8383 7.79636 10.4811 7.69342C10.085 7.57926 9.5633 7.47363 8.98877 7.47363C7.18854 7.47363 6.289 8.47363 4.48877 8.47363C3.63955 8.47363 2.90572 8.24286 2.52245 8.09487C2.34577 8.02666 2.23877 7.854 2.23877 7.66462V1.78265Z" fill="black"/>
<path d="M0.73877 0.973633V11.9736" stroke="black" stroke-linecap="round"/>
</g>
</svg>
