<svg viewBox="0 0 4 17" fill="none" xmlns="http://www.w3.org/2000/svg">
<path d="M3.75805 2.24328C3.75805 3.27834 2.91897 4.11742 1.88391 4.11742C0.848848 4.11742 0.00976562 3.27834 0.00976562 2.24328C0.00976562 1.20822 0.848848 0.369141 1.88391 0.369141C2.91897 0.369141 3.75805 1.20822 3.75805 2.24328Z" fill="currentColor"/>
<path d="M3.75805 8.49042C3.75805 9.52548 2.91897 10.3646 1.88391 10.3646C0.848848 10.3646 0.00976562 9.52548 0.00976562 8.49042C0.00976562 7.45536 0.848848 6.61628 1.88391 6.61628C2.91897 6.61628 3.75805 7.45536 3.75805 8.49042Z" fill="currentColor"/>
<path d="M3.75805 14.7376C3.75805 15.7726 2.91897 16.6117 1.88391 16.6117C0.848848 16.6117 0.00976562 15.7726 0.00976562 14.7376C0.00976562 13.7025 0.848848 12.8634 1.88391 12.8634C2.91897 12.8634 3.75805 13.7025 3.75805 14.7376Z" fill="currentColor"/>
</svg>
