<svg width="10" height="11" viewBox="0 0 10 11" fill="none" xmlns="http://www.w3.org/2000/svg">
<path d="M1.65538 10.1013L0.739014 9.36736L4.0772 5.97287L4.64992 6.44687L1.65538 10.1013ZM7.4481 10.2236C6.77174 10.2236 6.2372 10.0147 5.84447 9.59672C5.46265 9.17878 5.27174 8.62322 5.27174 7.93005C5.27174 7.23688 5.46265 6.68133 5.84447 6.26339C6.2372 5.84545 6.77174 5.63648 7.4481 5.63648C8.12447 5.63648 8.65356 5.84545 9.03538 6.26339C9.4281 6.68133 9.62447 7.23688 9.62447 7.93005C9.62447 8.62322 9.4281 9.17878 9.03538 9.59672C8.65356 10.0147 8.12447 10.2236 7.4481 10.2236ZM7.4481 9.36736C7.8081 9.36736 8.08083 9.24504 8.26629 9.00039C8.46265 8.74555 8.56083 8.38877 8.56083 7.93005C8.56083 7.47134 8.46265 7.11966 8.26629 6.87501C8.08083 6.62017 7.8081 6.49275 7.4481 6.49275C7.0881 6.49275 6.80992 6.62017 6.61356 6.87501C6.42811 7.11966 6.33538 7.47134 6.33538 7.93005C6.33538 8.38877 6.42811 8.74555 6.61356 9.00039C6.80992 9.24504 7.0881 9.36736 7.4481 9.36736ZM6.40083 4.4744L5.8281 4.00039L8.82265 0.345957L9.73901 1.0799L6.40083 4.4744ZM3.02992 4.81079C2.35356 4.81079 1.81901 4.60182 1.42629 4.18388C1.04447 3.76594 0.853559 3.21038 0.853559 2.51721C0.853559 1.82404 1.04447 1.26849 1.42629 0.850544C1.81901 0.432603 2.35356 0.223633 3.02992 0.223633C3.70629 0.223633 4.23538 0.432603 4.6172 0.850544C5.00992 1.26849 5.20629 1.82404 5.20629 2.51721C5.20629 3.21038 5.00992 3.76594 4.6172 4.18388C4.23538 4.60182 3.70629 4.81079 3.02992 4.81079ZM3.02992 3.95452C3.38992 3.95452 3.66265 3.8322 3.8481 3.58755C4.04447 3.33271 4.14265 2.97593 4.14265 2.51721C4.14265 2.0585 4.04447 1.70681 3.8481 1.46216C3.66265 1.20732 3.38992 1.0799 3.02992 1.0799C2.66992 1.0799 2.39174 1.20732 2.19538 1.46216C2.00992 1.70681 1.9172 2.0585 1.9172 2.51721C1.9172 2.97593 2.00992 3.33271 2.19538 3.58755C2.39174 3.8322 2.66992 3.95452 3.02992 3.95452Z" fill="black"/>
</svg>
