<svg viewBox="0 0 15 16" fill="none" xmlns="http://www.w3.org/2000/svg">
<path opacity="0.5" d="M7.61111 15.2224C11.4063 15.2224 14.483 12.1472 14.483 8.35386C14.483 4.56049 11.4063 1.48535 7.61111 1.48535M7.61111 15.2224C3.81589 15.2224 0.739258 12.1472 0.739258 8.35386C0.739258 4.56049 3.81589 1.48535 7.61111 1.48535M7.61111 15.2224C9.07366 15.2224 11.4965 12.1472 11.4965 8.35386C11.4965 4.56049 9.07366 1.48535 7.61111 1.48535M7.61111 15.2224C6.14856 15.2224 3.72558 12.1472 3.72558 8.35386C3.72558 4.56049 6.14856 1.48535 7.61111 1.48535M0.739258 8.34723L14.483 8.37403M7.61104 15.2291L7.61104 1.49202M2.05324 4.50082H13.1555M2.05324 12.2203H13.1555" stroke="black" stroke-width="0.999542"/>
</svg>
